<svg width="40" height="40" viewBox="0 0 40 40" fill="none" xmlns="http://www.w3.org/2000/svg">
<path d="M40 4.87082C38.5022 5.6836 36.9134 6.2171 35.2866 6.45359C36.9811 5.20957 38.2822 3.23962 38.8948 0.892445C37.284 2.06333 35.5216 2.88829 33.6838 3.33168C32.1867 1.37819 30.0541 0.157326 27.6936 0.157326C23.1614 0.157326 19.4869 4.658 19.4869 10.209C19.4869 10.9969 19.5595 11.764 19.6994 12.4999C12.8791 12.0806 6.83219 8.07886 2.78453 1.99733C2.07828 3.48192 1.67359 5.20881 1.67359 7.05072C1.67359 10.5382 3.1225 13.6147 5.32438 15.4174C4.02117 15.3674 2.74664 14.9363 1.60719 14.16C1.60672 14.2021 1.60672 14.2442 1.60672 14.2865C1.60672 19.1568 4.43547 23.2195 8.18953 24.143C6.98107 24.5455 5.71348 24.6045 4.48359 24.3152C5.52781 28.3087 8.55859 31.2147 12.1495 31.2961C9.34094 33.992 5.80234 35.599 1.95766 35.599C1.29516 35.599 0.642031 35.5514 0 35.4586C3.63172 38.3106 7.94531 39.9747 12.5797 39.9747C27.6745 39.9747 35.9288 24.6578 35.9288 11.3747C35.9288 10.9388 35.9209 10.5053 35.905 10.0743C37.5116 8.65165 38.8983 6.8896 40 4.87082" fill="#55ACEE"/>
</svg>
