<svg width="25" height="24" viewBox="0 0 25 24" fill="none" xmlns="http://www.w3.org/2000/svg">
<path d="M13.68 11.86C13.28 11.86 12.92 11.64 12.75 11.28L11.3 8.39L10.88 9.17C10.65 9.6 10.19 9.87 9.69997 9.87H8.96997C8.55997 9.87 8.21997 9.53 8.21997 9.12C8.21997 8.71 8.55997 8.37 8.96997 8.37H9.60997L10.4 6.91C10.59 6.57 10.97 6.34 11.33 6.36C11.72 6.36 12.07 6.59 12.25 6.93L13.68 9.79L14.02 9.1C14.25 8.64 14.7 8.36 15.22 8.36H16.03C16.44 8.36 16.78 8.7 16.78 9.11C16.78 9.52 16.44 9.86 16.03 9.86H15.32L14.61 11.27C14.43 11.64 14.08 11.86 13.68 11.86Z" fill="#C4C4C4"/>
<path d="M3.24994 18.65C2.83994 18.65 2.49994 18.31 2.49994 17.9V12.2C2.44994 9.48999 3.45994 6.92999 5.33994 5.00999C7.21994 3.09999 9.73994 2.04999 12.4499 2.04999C17.9899 2.04999 22.4999 6.55999 22.4999 12.1V17.8C22.4999 18.21 22.1599 18.55 21.7499 18.55C21.3399 18.55 20.9999 18.21 20.9999 17.8V12.1C20.9999 7.38999 17.1699 3.54999 12.4499 3.54999C10.1399 3.54999 7.99994 4.43999 6.40994 6.05999C4.80994 7.68999 3.95994 9.85999 3.99994 12.18V17.89C3.99994 18.31 3.66994 18.65 3.24994 18.65Z" fill="#C4C4C4"/>
<path d="M6.44 12.45H6.31C4.21 12.45 2.5 14.16 2.5 16.26V18.14C2.5 20.24 4.21 21.95 6.31 21.95H6.44C8.54 21.95 10.25 20.24 10.25 18.14V16.26C10.25 14.16 8.54 12.45 6.44 12.45Z" fill="#C4C4C4"/>
<path d="M18.69 12.45H18.56C16.46 12.45 14.75 14.16 14.75 16.26V18.14C14.75 20.24 16.46 21.95 18.56 21.95H18.69C20.79 21.95 22.5 20.24 22.5 18.14V16.26C22.5 14.16 20.79 12.45 18.69 12.45Z" fill="#C4C4C4"/>
</svg>
